HIERARCHY
ROOT Hips
{
	OFFSET 0.000000 0.000000 0.000000
	CHANNELS 6 Xposition Yposition Zposition Yrotation Xrotation Zrotation 
	JOINT LeftHip
	{
		OFFSET 0.098173 -0.000219 0.000024
		CHANNELS 3 Yrotation Xrotation Zrotation
		JOINT LeftKnee
		{
			OFFSET 0.000000 -0.409037 -0.000015
			CHANNELS 3 Yrotation Xrotation Zrotation
			JOINT LeftAnkle
			{
				OFFSET 0.000000 -0.429753 0.000242
				CHANNELS 3 Yrotation Xrotation Zrotation
				JOINT LeftToe
				{
					OFFSET 0.000000 -0.083906 0.181590
					CHANNELS 3 Yrotation Xrotation Zrotation
					End Site
					{
						OFFSET 0.000000 0.000000 0.000000
					}
				}
			}
		}
	}
	JOINT RightHip
	{
		OFFSET -0.098173 -0.000196 0.000022
		CHANNELS 3 Yrotation Xrotation Zrotation
		JOINT RightKnee
		{
			OFFSET 0.000000 -0.409037 -0.000015
			CHANNELS 3 Yrotation Xrotation Zrotation
			JOINT RightAnkle
			{
				OFFSET 0.000000 -0.429753 0.000242
				CHANNELS 3 Yrotation Xrotation Zrotation
				JOINT RightToe
				{
					OFFSET 0.000000 -0.083906 0.181590
					CHANNELS 3 Yrotation Xrotation Zrotation
					End Site
					{
						OFFSET 0.000000 0.000000 0.000000
					}
				}
			}
		}
	}
	JOINT Chest
	{
		OFFSET 0.000000 0.119819 -0.013313
		CHANNELS 3 Yrotation Xrotation Zrotation
		JOINT Chest3
		{
			OFFSET 0.000000 0.213365 -0.010277
			CHANNELS 3 Yrotation Xrotation Zrotation
			JOINT Chest4
			{
				OFFSET 0.000000 0.101957 0.000085
				CHANNELS 3 Yrotation Xrotation Zrotation
				JOINT Neck
				{
					OFFSET 0.000000 0.137769 0.000000
					CHANNELS 3 Yrotation Xrotation Zrotation
					JOINT Head
					{
						OFFSET 0.000000 0.090348 0.000182
						CHANNELS 3 Yrotation Xrotation Zrotation
						End Site
						{
							OFFSET 0.000000 0.000000 0.000000
						}
					}
				}
				JOINT LeftCollar
				{
					OFFSET 0.026598 0.077176 0.000000
					CHANNELS 3 Yrotation Xrotation Zrotation
					JOINT LeftShoulder
					{
						OFFSET 0.125155 0.000000 0.000000
						CHANNELS 3 Yrotation Xrotation Zrotation
						JOINT LeftElbow
						{
							OFFSET 0.295479 0.000000 0.000000
							CHANNELS 3 Yrotation Xrotation Zrotation
							JOINT LeftWrist
							{
								OFFSET 0.250185 0.000000 -0.000004
								CHANNELS 3 Yrotation Xrotation Zrotation
								End Site
								{
									OFFSET 0.000000 0.000000 0.000000
								}
							}
						}
					}
				}
				JOINT RightCollar
				{
					OFFSET -0.026598 0.077176 0.000000
					CHANNELS 3 Yrotation Xrotation Zrotation
					JOINT RightShoulder
					{
						OFFSET -0.125155 0.000000 0.000000
						CHANNELS 3 Yrotation Xrotation Zrotation
						JOINT RightElbow
						{
							OFFSET -0.295479 0.000000 0.000000
							CHANNELS 3 Yrotation Xrotation Zrotation
							JOINT RightWrist
							{
								OFFSET -0.250185 0.000000 -0.000004
								CHANNELS 3 Yrotation Xrotation Zrotation
								End Site
								{
									OFFSET 0.000000 0.000000 0.000000
								}
							}
						}
					}
				}
			}
		}
	}
}
MOTION
Frames: 8
Frame Time: 0.016667
0.000000 0.000000 0.000000 116.712564 -3.955684 0.527356 12.807819 1.040858 -3.948585 6.329639 17.714630 0.004960 24.232102 -15.316568 -1.255643 0.000030 0.015783 0.029467 -4.457494 -14.797836 -3.279719 3.465678 7.986960 0.862596 0.394880 9.591344 5.310428 0.000000 -0.000000 0.000000 -4.564117 -1.462712 0.131475 -4.068100 -7.133003 0.111950 -1.527453 5.341517 -0.124335 -0.173948 31.007881 2.056266 -0.643247 21.582528 3.671257 3.273714 -0.210540 -7.322357 11.015933 2.080172 -72.292279 -76.846329 -46.262891 -26.600624 -1.127407 -3.960663 27.061840 -2.121589 -0.301441 10.900965 -19.182707 -9.073835 74.372698 60.254936 -35.004687 29.274369 6.546375 4.585047 -37.313929 
0.000000 0.000000 0.000000 117.069958 -4.015649 0.413814 12.936312 1.102249 -3.876693 6.089115 17.371700 0.007727 23.943917 -15.031476 -1.018717 0.000000 -0.000000 0.000000 -4.733994 -14.650094 -3.285040 2.824853 8.289223 0.910396 -0.219928 9.282125 5.105633 0.000000 -0.000000 0.000000 -4.612112 -1.459581 0.247378 -4.121157 -7.130661 0.215706 -1.543187 5.341468 -0.087414 0.663056 31.214358 2.298845 0.806737 21.944344 3.965987 3.325119 -0.288137 -7.361776 10.771403 1.969496 -72.084965 -77.825553 -42.333185 -24.877148 -0.635303 -3.368064 25.859373 -2.139190 -0.423257 10.888100 -19.618565 -8.843444 74.142382 60.211922 -34.787187 29.425433 6.515910 4.609048 -37.232845 
0.000000 0.000000 0.000000 117.448575 -4.080719 0.308728 13.032282 1.193554 -3.798018 5.854743 16.994522 0.001691 23.638390 -14.734567 -0.792472 0.000000 -0.000000 0.000000 -5.142629 -14.549071 -3.217435 2.383553 8.831961 0.901617 -0.648252 8.754287 4.828006 0.000000 -0.000000 0.000000 -4.649283 -1.426550 0.346242 -4.163091 -7.101663 0.304320 -1.555402 5.351536 -0.055513 1.413713 31.382450 2.531495 2.104256 22.238551 4.260145 3.359000 -0.245942 -7.332941 10.542865 1.775844 -71.924731 -78.928294 -37.853949 -23.225816 -0.675957 -2.808972 24.801922 -2.158153 -0.478943 10.858837 -19.937131 -8.640135 74.006183 60.253039 -34.609965 29.455579 6.471520 4.632891 -37.141687 
0.000000 0.000000 0.000000 117.861070 -4.137178 0.209212 13.107485 1.295246 -3.715461 5.620069 16.590675 -0.008640 23.309409 -14.425310 -0.573357 0.000000 -0.000000 0.000000 -5.604546 -14.489997 -3.101745 2.054154 9.582433 0.840359 -0.981936 8.071021 4.514346 0.000000 -0.000000 0.000000 -4.677801 -1.379948 0.432633 -4.196233 -7.060547 0.381814 -1.564796 5.366241 -0.027333 2.080447 31.521100 2.754990 3.253669 22.483329 4.553978 3.378248 -0.143520 -7.268424 10.304384 1.523041 -71.767182 -79.982399 -33.044816 -21.729938 -1.006142 -2.235701 23.866039 -2.174487 -0.497880 10.823446 -20.181928 -8.445673 73.931404 60.338090 -34.470646 29.409361 6.418232 4.656824 -37.043425 
0.000000 0.000000 0.000000 118.303798 -4.164982 0.124648 13.190414 1.374462 -3.645317 5.386326 16.190702 -0.021785 22.949731 -14.116823 -0.359927 0.000000 -0.000000 0.000000 -6.035006 -14.483985 -2.966721 1.729585 10.519323 0.715291 -1.323278 7.360987 4.223099 0.000000 -0.000000 0.000000 -4.693652 -1.343476 0.506494 -4.216995 -7.028384 0.448062 -1.569980 5.377697 -0.002953 2.642383 31.626662 2.951789 4.221851 22.666133 4.817661 3.408445 -0.081636 -7.215417 9.994662 1.210773 -71.559070 -80.621201 -28.792255 -20.630984 -1.161401 -1.596246 22.930581 -2.175071 -0.511229 10.795845 -20.433577 -8.263097 73.854780 60.396792 -34.370149 29.393241 6.373444 4.680711 -36.948297 
0.000000 0.000000 0.000000 118.770739 -4.154715 0.061269 13.290002 1.416937 -3.597670 5.158163 15.804308 -0.036142 22.561657 -13.813046 -0.152681 0.000000 -0.000000 0.000000 -6.418968 -14.565282 -2.809282 1.379478 11.709522 0.498994 -1.719486 6.670429 3.992894 0.000000 -0.000000 0.000000 -4.687108 -1.325193 0.568173 -4.216741 -7.012335 0.503363 -1.567667 5.383240 0.018024 3.084383 31.695998 3.116015 4.981833 22.783549 5.042142 3.464774 -0.107913 -7.197503 9.550116 0.823757 -71.277483 -80.838470 -25.272462 -19.880682 -0.931625 -0.755070 21.957224 -2.149607 -0.521197 10.782141 -20.734389 -8.101088 73.756780 60.405814 -34.312023 29.448748 6.348398 4.707071 -36.862638 
0.000000 0.000000 0.000000 119.267730 -4.116095 0.013589 13.397102 1.437379 -3.563207 4.930930 15.421751 -0.054119 22.142916 -13.509769 0.048672 0.000000 -0.000000 0.000000 -6.772001 -14.700565 -2.631979 1.024209 13.084759 0.216703 -2.126290 5.955309 3.788514 0.000000 -0.000000 0.000000 -4.667883 -1.316935 0.617106 -4.204061 -7.005140 0.547227 -1.561122 5.385589 0.035121 3.420256 31.733016 3.251253 5.556649 22.845975 5.231497 3.532295 -0.174277 -7.192517 9.031569 0.377159 -70.946462 -80.796938 -22.325629 -19.382051 -0.508302 0.174083 20.931635 -2.108414 -0.525600 10.776218 -21.042250 -7.950550 73.657908 60.388895 -34.292196 29.534726 6.331591 4.733296 -36.780246 
0.000000 0.000000 0.000000 119.808867 -4.057795 -0.026392 13.512989 1.446328 -3.529381 4.691891 15.044455 -0.080380 21.679374 -13.207762 0.246866 0.000000 -0.000000 0.000000 -7.054853 -14.800148 -2.471872 0.637242 14.421663 -0.059976 -2.508969 5.207959 3.555555 0.000000 -0.000000 0.000000 -4.661203 -1.317972 0.651626 -4.201222 -7.006164 0.578138 -1.558792 5.384947 0.046867 3.672698 31.745241 3.354946 5.988042 22.862786 5.376697 3.591287 -0.237760 -7.179365 8.563579 -0.083753 -70.583649 -80.475509 -20.344483 -19.208925 -0.016355 0.889235 19.724183 -2.069031 -0.549122 10.773064 -21.311659 -7.788277 73.554156 60.347291 -34.300040 29.633349 6.306329 4.751399 -36.692452 
